<svg width="153" height="84" viewBox="0 0 153 84" fill="none" xmlns="http://www.w3.org/2000/svg">
<circle cx="42" cy="42" r="42" fill="#D14CA3" fill-opacity="0.5"/>
<path d="M47.844 41.756L47.178 44.87H49.554V46.67H46.8L46.08 50H44.118L44.838 46.67H41.31L40.59 50H38.628L39.348 46.67H36.558V44.87H39.726L40.392 41.756H37.62V39.956H40.77L41.472 36.68H43.434L42.732 39.956H46.26L46.962 36.68H48.924L48.222 39.956H50.616V41.756H47.844ZM45.882 41.756H42.354L41.688 44.87H45.216L45.882 41.756ZM57.0433 39.92C57.8113 39.92 58.4893 40.076 59.0773 40.388C59.6773 40.688 60.1453 41.066 60.4813 41.522V40.082H62.5513V50.162C62.5513 51.074 62.3593 51.884 61.9753 52.592C61.5913 53.312 61.0333 53.876 60.3013 54.284C59.5813 54.692 58.7173 54.896 57.7093 54.896C56.3653 54.896 55.2493 54.578 54.3613 53.942C53.4733 53.318 52.9693 52.466 52.8493 51.386H54.8833C55.0393 51.902 55.3693 52.316 55.8733 52.628C56.3893 52.952 57.0013 53.114 57.7093 53.114C58.5373 53.114 59.2033 52.862 59.7073 52.358C60.2233 51.854 60.4813 51.122 60.4813 50.162V48.506C60.1333 48.974 59.6593 49.37 59.0593 49.694C58.4713 50.006 57.7993 50.162 57.0433 50.162C56.1793 50.162 55.3873 49.946 54.6673 49.514C53.9593 49.07 53.3953 48.458 52.9753 47.678C52.5673 46.886 52.3633 45.992 52.3633 44.996C52.3633 44 52.5673 43.118 52.9753 42.35C53.3953 41.582 53.9593 40.988 54.6673 40.568C55.3873 40.136 56.1793 39.92 57.0433 39.92ZM60.4813 45.032C60.4813 44.348 60.3373 43.754 60.0493 43.25C59.7733 42.746 59.4073 42.362 58.9513 42.098C58.4953 41.834 58.0033 41.702 57.4753 41.702C56.9473 41.702 56.4553 41.834 55.9993 42.098C55.5433 42.35 55.1713 42.728 54.8833 43.232C54.6073 43.724 54.4693 44.312 54.4693 44.996C54.4693 45.68 54.6073 46.28 54.8833 46.796C55.1713 47.312 55.5433 47.708 55.9993 47.984C56.4673 48.248 56.9593 48.38 57.4753 48.38C58.0033 48.38 58.4953 48.248 58.9513 47.984C59.4073 47.72 59.7733 47.336 60.0493 46.832C60.3373 46.316 60.4813 45.716 60.4813 45.032ZM74.3365 44.798C74.3365 45.17 74.3125 45.506 74.2645 45.806H66.6865C66.7465 46.598 67.0405 47.234 67.5685 47.714C68.0965 48.194 68.7445 48.434 69.5125 48.434C70.6165 48.434 71.3965 47.972 71.8525 47.048H74.0665C73.7665 47.96 73.2205 48.71 72.4285 49.298C71.6485 49.874 70.6765 50.162 69.5125 50.162C68.5645 50.162 67.7125 49.952 66.9565 49.532C66.2125 49.1 65.6245 48.5 65.1925 47.732C64.7725 46.952 64.5625 46.052 64.5625 45.032C64.5625 44.012 64.7665 43.118 65.1745 42.35C65.5945 41.57 66.1765 40.97 66.9205 40.55C67.6765 40.13 68.5405 39.92 69.5125 39.92C70.4485 39.92 71.2825 40.124 72.0145 40.532C72.7465 40.94 73.3165 41.516 73.7245 42.26C74.1325 42.992 74.3365 43.838 74.3365 44.798ZM72.1945 44.15C72.1825 43.394 71.9125 42.788 71.3845 42.332C70.8565 41.876 70.2025 41.648 69.4225 41.648C68.7145 41.648 68.1085 41.876 67.6045 42.332C67.1005 42.776 66.8005 43.382 66.7045 44.15H72.1945ZM78.7499 41.756V47.246C78.7499 47.618 78.8339 47.888 79.0019 48.056C79.1819 48.212 79.4819 48.29 79.9019 48.29H81.1619V50H79.5419C78.6179 50 77.9099 49.784 77.4179 49.352C76.9259 48.92 76.6799 48.218 76.6799 47.246V41.756H75.5099V40.082H76.6799V37.616H78.7499V40.082H81.1619V41.756H78.7499ZM85.1051 41.558C85.4531 41.078 85.9271 40.688 86.5271 40.388C87.1391 40.076 87.8171 39.92 88.5611 39.92C89.4371 39.92 90.2291 40.13 90.9371 40.55C91.6451 40.97 92.2031 41.57 92.6111 42.35C93.0191 43.118 93.2231 44 93.2231 44.996C93.2231 45.992 93.0191 46.886 92.6111 47.678C92.2031 48.458 91.6391 49.07 90.9191 49.514C90.2111 49.946 89.4251 50.162 88.5611 50.162C87.7931 50.162 87.1091 50.012 86.5091 49.712C85.9211 49.412 85.4531 49.028 85.1051 48.56V50H83.0531V36.68H85.1051V41.558ZM91.1351 44.996C91.1351 44.312 90.9911 43.724 90.7031 43.232C90.4271 42.728 90.0551 42.35 89.5871 42.098C89.1311 41.834 88.6391 41.702 88.1111 41.702C87.5951 41.702 87.1031 41.834 86.6351 42.098C86.1791 42.362 85.8071 42.746 85.5191 43.25C85.2431 43.754 85.1051 44.348 85.1051 45.032C85.1051 45.716 85.2431 46.316 85.5191 46.832C85.8071 47.336 86.1791 47.72 86.6351 47.984C87.1031 48.248 87.5951 48.38 88.1111 48.38C88.6391 48.38 89.1311 48.248 89.5871 47.984C90.0551 47.708 90.4271 47.312 90.7031 46.796C90.9911 46.28 91.1351 45.68 91.1351 44.996ZM97.3043 41.522C97.6043 41.018 98.0003 40.628 98.4923 40.352C98.9963 40.064 99.5903 39.92 100.274 39.92V42.044H99.7523C98.9483 42.044 98.3363 42.248 97.9163 42.656C97.5083 43.064 97.3043 43.772 97.3043 44.78V50H95.2523V40.082H97.3043V41.522ZM101.477 44.996C101.477 44 101.681 43.118 102.089 42.35C102.509 41.582 103.073 40.988 103.781 40.568C104.501 40.136 105.293 39.92 106.157 39.92C106.937 39.92 107.615 40.076 108.191 40.388C108.779 40.688 109.247 41.066 109.595 41.522V40.082H111.665V50H109.595V48.524C109.247 48.992 108.773 49.382 108.173 49.694C107.573 50.006 106.889 50.162 106.121 50.162C105.269 50.162 104.489 49.946 103.781 49.514C103.073 49.07 102.509 48.458 102.089 47.678C101.681 46.886 101.477 45.992 101.477 44.996ZM109.595 45.032C109.595 44.348 109.451 43.754 109.163 43.25C108.887 42.746 108.521 42.362 108.065 42.098C107.609 41.834 107.117 41.702 106.589 41.702C106.061 41.702 105.569 41.834 105.113 42.098C104.657 42.35 104.285 42.728 103.997 43.232C103.721 43.724 103.583 44.312 103.583 44.996C103.583 45.68 103.721 46.28 103.997 46.796C104.285 47.312 104.657 47.708 105.113 47.984C105.581 48.248 106.073 48.38 106.589 48.38C107.117 48.38 107.609 48.248 108.065 47.984C108.521 47.72 108.887 47.336 109.163 46.832C109.451 46.316 109.595 45.716 109.595 45.032ZM115.404 38.768C115.032 38.768 114.72 38.642 114.468 38.39C114.216 38.138 114.09 37.826 114.09 37.454C114.09 37.082 114.216 36.77 114.468 36.518C114.72 36.266 115.032 36.14 115.404 36.14C115.764 36.14 116.07 36.266 116.322 36.518C116.574 36.77 116.7 37.082 116.7 37.454C116.7 37.826 116.574 38.138 116.322 38.39C116.07 38.642 115.764 38.768 115.404 38.768ZM116.412 40.082V50H114.36V40.082H116.412ZM124.11 39.92C124.89 39.92 125.586 40.082 126.198 40.406C126.822 40.73 127.308 41.21 127.656 41.846C128.004 42.482 128.178 43.25 128.178 44.15V50H126.144V44.456C126.144 43.568 125.922 42.89 125.478 42.422C125.034 41.942 124.428 41.702 123.66 41.702C122.892 41.702 122.28 41.942 121.824 42.422C121.38 42.89 121.158 43.568 121.158 44.456V50H119.106V40.082H121.158V41.216C121.494 40.808 121.92 40.49 122.436 40.262C122.964 40.034 123.522 39.92 124.11 39.92ZM139.885 44.798C139.885 45.17 139.861 45.506 139.813 45.806H132.235C132.295 46.598 132.589 47.234 133.117 47.714C133.645 48.194 134.293 48.434 135.061 48.434C136.165 48.434 136.945 47.972 137.401 47.048H139.615C139.315 47.96 138.769 48.71 137.977 49.298C137.197 49.874 136.225 50.162 135.061 50.162C134.113 50.162 133.261 49.952 132.505 49.532C131.761 49.1 131.173 48.5 130.741 47.732C130.321 46.952 130.111 46.052 130.111 45.032C130.111 44.012 130.315 43.118 130.723 42.35C131.143 41.57 131.725 40.97 132.469 40.55C133.225 40.13 134.089 39.92 135.061 39.92C135.997 39.92 136.831 40.124 137.563 40.532C138.295 40.94 138.865 41.516 139.273 42.26C139.681 42.992 139.885 43.838 139.885 44.798ZM137.743 44.15C137.731 43.394 137.461 42.788 136.933 42.332C136.405 41.876 135.751 41.648 134.971 41.648C134.263 41.648 133.657 41.876 133.153 42.332C132.649 42.776 132.349 43.382 132.253 44.15H137.743ZM141.221 44.996C141.221 44 141.425 43.118 141.833 42.35C142.253 41.582 142.817 40.988 143.525 40.568C144.245 40.136 145.043 39.92 145.919 39.92C146.567 39.92 147.203 40.064 147.827 40.352C148.463 40.628 148.967 41 149.339 41.468V36.68H151.409V50H149.339V48.506C149.003 48.986 148.535 49.382 147.935 49.694C147.347 50.006 146.669 50.162 145.901 50.162C145.037 50.162 144.245 49.946 143.525 49.514C142.817 49.07 142.253 48.458 141.833 47.678C141.425 46.886 141.221 45.992 141.221 44.996ZM149.339 45.032C149.339 44.348 149.195 43.754 148.907 43.25C148.631 42.746 148.265 42.362 147.809 42.098C147.353 41.834 146.861 41.702 146.333 41.702C145.805 41.702 145.313 41.834 144.857 42.098C144.401 42.35 144.029 42.728 143.741 43.232C143.465 43.724 143.327 44.312 143.327 44.996C143.327 45.68 143.465 46.28 143.741 46.796C144.029 47.312 144.401 47.708 144.857 47.984C145.325 48.248 145.817 48.38 146.333 48.38C146.861 48.38 147.353 48.248 147.809 47.984C148.265 47.72 148.631 47.336 148.907 46.832C149.195 46.316 149.339 45.716 149.339 45.032Z" fill="#B13689"/>
</svg>
